<?xml version="1.0" encoding="UTF-8"?><svg id="a" xmlns="http://www.w3.org/2000/svg" width=".421in" height=".421in" viewBox="0 0 30.329 30.325"><path d="M21.573,18.542l2.512.049c.065,0,.124-.039.147-.1.394-1.074.594-2.209.591-3.353,0-.065-.042-.123-.104-.144l-2.377-.814c-.229-.079-.401-.271-.454-.508-.053-.237.022-.484.197-.652l1.811-1.745c.047-.045.06-.115.033-.174-.482-1.037-1.143-1.981-1.952-2.788-.047-.046-.117-.058-.175-.029l-2.259,1.106c-.218.106-.476.093-.68-.038-.204-.13-.327-.358-.322-.6l.049-2.512c.002-.065-.038-.124-.1-.147-1.074-.394-2.209-.594-3.353-.591-.065,0-.123.042-.144.104l-.814,2.378c-.078.229-.27.401-.508.454-.237.053-.484-.022-.652-.197l-1.744-1.811c-.045-.047-.115-.06-.174-.033-1.037.482-1.981,1.143-2.788,1.952-.045.046-.057.117-.028.175l1.106,2.258c.106.218.092.476-.038.68-.13.205-.358.327-.6.322l-2.512-.049h0c-.065-.001-.125.039-.147.1-.394,1.074-.594,2.209-.592,3.353,0,.065.042.123.104.144l2.377.814c.229.078.402.271.454.508.053.237-.022.484-.197.652l-1.811,1.744c-.047.045-.06.115-.033.174.482,1.037,1.142,1.98,1.952,2.788.046.045.117.057.175.028l2.259-1.105c.218-.107.476-.093.68.038.205.13.327.358.322.6l-.049,2.512c-.001.065.039.124.1.147,1.074.394,2.209.594,3.353.591.065,0,.123-.042.145-.104l.814-2.378h0c.078-.23.271-.401.507-.454.237-.052.484.022.652.197l1.744,1.811c.045.047.115.061.174.033,1.037-.482,1.981-1.143,2.788-1.952.046-.046.057-.117.028-.175l-1.105-2.259c-.107-.217-.092-.475.038-.68.131-.205.358-.327.601-.321ZM15.165,17.086c-1.063,0-1.924-.861-1.924-1.924s.861-1.924,1.924-1.924,1.924.861,1.924,1.924-.861,1.924-1.924,1.924Z" fill="#861b21"/><path d="M1.946,12.526c.602-3.015,2.216-5.734,4.575-7.705,2.359-1.971,5.321-3.076,8.395-3.133,2.879-.053,5.688.827,8.03,2.485l-1.779,1.779c-.056.056-.073.14-.043.214.031.073.102.121.181.121h4.821c.073,0,.142-.029.193-.08.052-.051.08-.121.08-.193V1.192c0-.08-.048-.151-.121-.181-.073-.031-.158-.013-.214.042l-1.918,1.919C21.235.824,17.652-.229,14.031.042c-3.816.285-7.382,2.001-9.984,4.806C1.445,7.652-.001,11.336,0,15.162c0,2.151.458,4.274,1.339,6.23.196.435.732.602,1.154.381h0c.401-.21.55-.694.366-1.108-1.138-2.547-1.461-5.391-.912-8.139Z" fill="#861b21"/><path d="M28.989,8.931c-.196-.434-.731-.601-1.154-.38h-.001c-.401.211-.551.695-.366,1.108,1.138,2.547,1.461,5.391.913,8.139-.602,3.015-2.216,5.733-4.575,7.704-2.36,1.971-5.321,3.077-8.395,3.133-2.881.053-5.691-.829-8.034-2.488l1.779-1.779c.056-.056.073-.14.043-.214-.031-.073-.102-.121-.181-.121h-4.821c-.073,0-.142.029-.193.08-.052.051-.08.121-.08.193v4.821c0,.08.048.151.121.181.073.031.158.013.214-.042l1.917-1.917c2.635,1.945,5.826,2.999,9.111,2.974,3.478-.027,6.84-1.248,9.524-3.459,2.684-2.211,4.526-5.278,5.218-8.686.634-3.123.266-6.358-1.038-9.249Z" fill="#861b21"/></svg>